<?xml version="1.0" encoding="UTF-8"?>
<svg id="Layer_1" xmlns="http://www.w3.org/2000/svg" version="1.1" viewBox="0 0 48 48">
  <!-- Generator: Adobe Illustrator 29.4.0, SVG Export Plug-In . SVG Version: 2.1.0 Build 152)  -->
  <defs>
    <style>
      .st0 {
        fill: #212121;
      }
    </style>
  </defs>
  <path class="st0" d="M7,36.75c0,3.45,2.8,6.25,6.25,6.25h23.5c3.45,0,6.25-2.8,6.25-6.25v-18.5c0-.69-.56-1.25-1.25-1.25s-1.25.56-1.25,1.25v18.5c0,2.07-1.68,3.75-3.75,3.75H13.25c-2.07,0-3.75-1.68-3.75-3.75v-18.5c0-.69-.56-1.25-1.25-1.25s-1.25.56-1.25,1.25v18.5ZM15.37,14.12c-.49.49-.49,1.28,0,1.77.49.49,1.28.49,1.77,0l6.62-6.62v22.48c0,.69.56,1.25,1.25,1.25s1.25-.56,1.25-1.25V9.27l6.62,6.62c.49.49,1.28.49,1.77,0,.49-.49.49-1.28,0-1.77l-8.75-8.75c-.49-.49-1.28-.49-1.77,0l-8.75,8.75Z"/>
</svg>